# AST/ASF file generated using VICON BodyLanguage
# -----------------------------------------------
:version 1.10
:name VICON
:units
  mass 1.0
  length 0.45
  angle deg
:documentation
   .ast/.asf automatically generated from VICON data using
   VICON BodyBuilder and BodyLanguage model FoxedUp or BRILLIANT.MOD
:root
   order TX TY TZ RX RY RZ
   axis XYZ
   position 0 0 0  
   orientation 0 -0 0 
:bonedata
  begin
     id 1 
     name lhipjoint
     direction 0.500677 -0.737119 0.453848 
     length 2.34727 
     axis 0 -0 0  XYZ
  end
  begin
     id 2 
     name lfemur
     direction 0.34202 -0.939693 0  
     length 7.53653  
     axis 0 -0 20  XYZ
    dof rx ry rz
    limits (-160.0 20.0)
           (-70.0 70.0)
           (-60.0 70.0)
  end
  begin
     id 3 
     name ltibia
     direction 0.34202 -0.939693 0   
     length 6.85572   
     axis 0 -0 20   XYZ
    dof rx
    limits (-10.0 170.0)
  end
  begin
     id 4 
     name lfoot
     direction 0.155313 -0.426718 0.890949   
     length 2.18324   
     axis -90 -1.13533e-015 20   XYZ
    dof rx rz
    limits (-45.0 90.0)
           (-70.0 20.0)
  end
  begin
     id 5 
     name ltoes
     direction 1.53474e-011 -4.21647e-011 1   
     length 1.06748   
     axis -90 -1.13533e-015 20   XYZ
    dof rx
    limits (-90.0 20.0)
  end
  begin
     id 6 
     name rhipjoint
     direction -0.632471 -0.659587 0.406111   
     length 2.62319  
     axis 0 -0 0  XYZ 
  end
  begin
     id 7 
     name rfemur
     direction -0.34202 -0.939693 0   
     length 7.21735   
     axis 0 -0 -20   XYZ
    dof rx ry rz
    limits (-160.0 20.0)
           (-70.0 70.0)
           (-70.0 60.0)
  end
  begin
     id 8 
     name rtibia
     direction -0.34202 -0.939693 0   
     length 7.02558   
     axis 0 -0 -20   XYZ
    dof rx
    limits (-10.0 170.0)
 end
 begin
     id 9 
     name rfoot
     direction -0.16057 -0.441164 0.882945   
     length 2.10014  
     axis -90 1.13533e-015 -20   XYZ
    dof rx rz
    limits (-45.0 90.0)
           (-20.0 70.0)
  end
  begin
     id 10 
     name rtoes
     direction -1.53553e-011 -4.2192e-011 1   
     length 1.02554   
     axis -90 1.13533e-015 -20   XYZ
    dof rx
    limits (-90.0 20.0)
  end
  begin
     id 11 
     name lowerback
     direction 0.0401429 0.998861 -0.0258085   
     length 1.80848   
     axis 0 -0 0   XYZ
    dof rx ry rz
    limits (-20.0 45.0)
           (-30.0 30.0)
           (-30.0 30.0)
  end
  begin
     id 12 
     name upperback
     direction -0.0130978 0.999914 -0.000352645   
     length 1.8116   
     axis 0 -0 0   XYZ
    dof rx ry rz
    limits (-20.0 45.0)
           (-30.0 30.0)
           (-30.0 30.0)
  end
  begin
     id 13 
     name thorax
     direction -0.0300198 0.999453 0.0138573   
     length 1.81778   
     axis 0 -0 0   XYZ
    dof rx ry rz
    limits (-20.0 45.0)
           (-30.0 30.0)
           (-30.0 30.0)
  end
  begin
     id 14 
     name lowerneck
     direction -0.0401726 0.999191 -0.00173647   
     length 2.10594   
     axis 0 -0 0   XYZ
    dof rx ry rz
    limits (-20.0 45.0)
           (-30.0 30.0)
           (-30.0 30.0)
  end
  begin
     id 15 
     name upperneck
     direction 0.0119835 0.998501 0.0534085   
     length 2.07325   
     axis 0 -0 0   XYZ
    dof rx ry rz
    limits (-20.0 45.0)
           (-30.0 30.0)
           (-30.0 30.0)
  end
  begin
     id 16
     name head
     direction 0.00628309 0.999826 0.0175921  
     length 2.15096  
     axis 0 -0 0   XYZ
    dof rx ry rz
    limits (-20.0 45.0)
           (-30.0 30.0)
           (-30.0 30.0)
  end
  begin
     id 17 
     name lclavicle
     direction 0.895501 0.429681 -0.115981  
     length 4.18092  
     axis 0 -0 0   XYZ
    dof ry rz
    limits (-20.0 10.0)
           (0.0 20.0)
  end
  begin
     id 18 
     name lhumerus
     direction 1 -4.48961e-011 -3.38433e-028   
     length 5.77237   
     axis 180 -30 -90   XYZ
    dof rx ry rz
    limits (-60.0 90.0)
           (-90.0 90.0)
           (-90.0 90.0)
  end
  begin
     id 19
     name lradius
     direction 1 -4.4901e-011 1.11983e-026   
     length 2.91878   
     axis 180 -30 -90   XYZ
    dof rx
    limits (-10.0 170.0)
  end
  begin
     id 20
     name lwrist
     direction 1 -4.48934e-011 1.88176e-026   
     length 1.45939   
     axis -1.23311e-014 90 90   XYZ
    dof ry
    limits (-180.0 0.0)
 end
  begin
     id 21 
     name lhand
     direction 1 -4.4895e-011 3.76352e-026   
     length 1.06566   
     axis -2.40147e-014 90 90   XYZ
    dof rx rz
    limits (-90.0 90.0)
           (-45.0 45.0)
  end
  begin
     id 22 
     name lfingers
     direction 1 -4.49005e-011 7.52705e-026   
     length 0.859162   
     axis -4.80295e-014 90 90   XYZ
    dof rx
    limits (0.0 90.0)
  end
  begin
     id 23
     name lthumb
     direction 0.707107 -6.34885e-011 0.707107   
     length 1.23359   
     axis -90 45 -9.86935e-015   XYZ
    dof rx rz
    limits (-45.0 45.0)
           (-45.0 45.0)
  end
  begin
     id 24 
     name rclavicle
     direction -0.91006 0.40451 -0.0903492   
     length 4.23293  
     axis 0 -0 0   XYZ 
    dof ry rz
    limits (-10.0 20.0)
           (-20.0 0.0)
  end
  begin
     id 25 
     name rhumerus
     direction -1 -4.4897e-011 1.7415e-027  
     length 5.49854   
     axis 180 30 90   XYZ
    dof rx ry rz
    limits (-90.0 60.0)
           (-90.0 90.0)
           (-90.0 90.0)
  end
  begin
     id 26 
     name rradius
     direction -1 -4.48963e-011 1.21259e-026   
     length 3.1186   
     axis 180 30 90   XYZ
    dof rx
    limits (-10.0 170.0)
  end
  begin
     id 27 
     name rwrist
     direction -1 -4.48967e-011 1.88176e-026   
     length 1.5593   
     axis -1.23311e-014 -90 -90   XYZ
    dof ry
    limits (-180.0 0.0)
  end
  begin
     id 28
     name rhand
     direction -1 -4.4895e-011 3.76352e-026   
     length 0.71207   
     axis -2.40147e-014 -90 -90   XYZ
    dof rx rz
    limits (-90.0 90.0)
           (-45.0 45.0)
  end
  begin
     id 29
     name rfingers
     direction -1 -4.49005e-011 7.52705e-026   
     length 0.574089   
     axis -4.80295e-014 -90 -90   XYZ
    dof rx
    limits (0.0 90.0)
  end
  begin
     id 30
     name rthumb
     direction -0.707107 -6.34982e-011 0.707107   
     length 0.824281   
     axis -90 -45 9.86935e-015   XYZ
    dof rx rz
    limits (-45.0 45.0)
           (-45.0 45.0)
  end
:hierarchy
  begin
    root lhipjoint rhipjoint lowerback
    lhipjoint lfemur
    lfemur ltibia
    ltibia lfoot
    lfoot ltoes
    rhipjoint rfemur
    rfemur rtibia
    rtibia rfoot
    rfoot rtoes
    lowerback upperback
    upperback thorax
    thorax lowerneck lclavicle rclavicle
    lowerneck upperneck
    upperneck head
    lclavicle lhumerus
    lhumerus lradius
    lradius lwrist
    lwrist lhand lthumb
    lhand lfingers
    rclavicle rhumerus
    rhumerus rradius
    rradius rwrist
    rwrist rhand rthumb
    rhand rfingers
  end

#!OML:ASF C:\ViconDB\ViconDB\414\Spring2016\042216\male.ASF
:FULLY-SPECIFIED
:DEGREES
813
root 35.5155 17.3572 4.03082 -542.848 65.454 -182.747
lowerback 0.535466 -1.1439 5.35606
upperback -0.283145 -1.47934 -0.218434
thorax -0.73365 -0.762931 -3.20807
lowerneck 3.92431 13.6682 0.985277
upperneck 4.91056 18.472 -2.05429
head 1.19666 9.27748 -0.754669
rclavicle 3.39829e-014 -2.38542e-014
rhumerus -27.047 -4.15308 -87.5149
rradius 26.0036
rwrist 27.6744
rhand 7.56694 -23.9664
rfingers 7.12502
rthumb 32.8152 -51.0054
lclavicle 3.39829e-014 -2.38542e-014
lhumerus -34.2748 11.6384 87.7105
lradius 33.3221
lwrist -8.86016
lhand -12.8988 16.6176
lfingers 7.12502
lthumb 13.1907 46.1803
rfemur -5.25156 20.6548 23.8317
rtibia 26.2294
rfoot -26.2896 -28.8606
rtoes -9.15461
lfemur -22.0961 -7.71113 -24.4097
ltibia 39.1416
lfoot -29.76 13.7185
ltoes -10.0395
814
root 35.5498 17.3554 4.04974 -542.502 65.7518 -182.44
lowerback 0.465081 -1.09013 5.52796
upperback -0.275227 -1.41135 -0.266045
thorax -0.685022 -0.728443 -3.35639
lowerneck 3.94732 13.7641 1.20178
upperneck 4.87599 18.6149 -2.24935
head 1.22594 9.35092 -0.840198
rclavicle 5.16157e-014 -1.78906e-014
rhumerus -27.0172 -4.56026 -87.761
rradius 26.0407
rwrist 27.7522
rhand 7.54622 -23.6711
rfingers 7.12502
rthumb 32.7955 -50.7142
lclavicle 5.16157e-014 -1.78906e-014
lhumerus -34.2421 11.8908 87.5544
lradius 33.0338
lwrist -9.01825
lhand -12.7777 16.6294
lfingers 7.12502
lthumb 13.3075 46.1845
rfemur -5.15627 20.7902 24.1047
rtibia 26.0079
rfoot -26.1451 -28.785
rtoes -9.12252
lfemur -22.2069 -7.77248 -24.6451
ltibia 38.905
lfoot -29.5738 13.3979
ltoes -10.5805
815
root 35.5871 17.3629 4.06199 -542.56 66.0562 -182.528
lowerback 0.420375 -1.08265 5.38723
upperback -0.332378 -1.40262 -0.19751
thorax -0.712688 -0.724985 -3.207
lowerneck 4.09008 13.8612 1.15612
upperneck 4.90915 18.7599 -2.44537
head 1.23334 9.42484 -0.897853
rclavicle 4.641e-014 -2.26615e-014
rhumerus -27.1138 -4.02385 -87.9711
rradius 26.2034
rwrist 26.8843
rhand 7.57713 -23.8004
rfingers 7.12502
rthumb 32.8249 -50.8374
lclavicle 4.641e-014 -2.26615e-014
lhumerus -34.4754 12.1701 87.6597
lradius 32.9212
lwrist -8.94498
lhand -12.92 16.7957
lfingers 7.12502
lthumb 13.1703 46.3597
rfemur -5.01564 20.6271 24.1553
rtibia 25.8215
rfoot -25.9978 -28.4964
rtoes -9.50849
lfemur -22.2133 -8.07053 -24.9785
ltibia 38.6774
lfoot -29.3696 13.241
ltoes -10.3169
816
root 35.619 17.3641 4.07662 -542.348 66.3747 -182.372
lowerback 0.397793 -1.03761 5.49726
upperback -0.355907 -1.34302 -0.245102
thorax -0.722351 -0.696705 -3.31896
lowerneck 4.07017 13.9578 1.23858
upperneck 4.93704 18.8981 -2.53304
head 1.26609 9.49434 -0.929176
rclavicle 7.67806e-015 -3.97569e-016
rhumerus -27.1037 -3.96996 -88.2893
rradius 26.2854
rwrist 26.6641
rhand 7.72718 -23.4003
rfingers 7.12502
rthumb 32.9676 -50.4074
lclavicle 7.67806e-015 -3.97569e-016
lhumerus -34.5448 12.3883 87.6166
lradius 32.7451
lwrist -9.17305
lhand -12.7857 16.742
lfingers 7.12502
lthumb 13.2998 46.2977
rfemur -4.95721 20.5257 24.2947
rtibia 25.6159
rfoot -25.8469 -28.221
rtoes -9.78422
lfemur -22.2744 -8.12665 -25.2128
ltibia 38.4931
lfoot -29.3217 12.9074
ltoes -10.6768
817
root 35.6542 17.3634 4.09182 -542.2 66.7245 -182.218
lowerback 0.439206 -0.975379 5.56386
upperback -0.409487 -1.25593 -0.291976
thorax -0.794815 -0.656885 -3.40473
lowerneck 4.13782 14.0311 1.37015
upperneck 4.97279 19.0106 -2.64327
head 1.2941 9.55319 -0.980014
rclavicle 1.53313e-014 1.55052e-014
rhumerus -27.1828 -4.03236 -88.6171
rradius 26.3915
rwrist 26.494
rhand 7.83454 -23.2811
rfingers 7.12502
rthumb 33.0697 -50.2665
lclavicle 1.53313e-014 1.55052e-014
lhumerus -34.8003 12.7348 87.5151
lradius 32.7208
lwrist -9.59979
lhand -12.5551 16.7777
lfingers 7.12502
lthumb 13.522 46.3187
rfemur -4.80096 20.5033 24.4799
rtibia 25.4034
rfoot -25.6533 -27.8768
rtoes -9.10782
lfemur -22.2134 -8.4319 -25.3751
ltibia 38.318
lfoot -28.8793 12.9445
ltoes -11.5609
